<svg xmlns="http://www.w3.org/2000/svg" fill="none" viewBox="0 0 48 48" id="Dashboard-Square--Streamline-Plump.svg" height="48" width="48"><desc>Dashboard Square Streamline Icon: https://streamlinehq.com</desc><g id="dashboard-square--app-application-dashboard-home-layout-square"><path id="Rectangle 123" fill="#dfeb2a" d="M3.116 7.005c0.107 -1.955 1.426 -3.481 3.369 -3.716C7.81 3.129 9.617 3 12 3c2.383 0 4.19 0.129 5.515 0.289 1.943 0.235 3.262 1.761 3.369 3.716C20.95 8.215 21 9.844 21 12s-0.05 3.785 -0.116 4.995c-0.107 1.955 -1.426 3.481 -3.369 3.716 -1.325 0.16 -3.132 0.289 -5.515 0.289 -2.383 0 -4.19 -0.129 -5.515 -0.289 -1.943 -0.235 -3.262 -1.761 -3.369 -3.716A92.661 92.661 0 0 1 3 12c0 -2.156 0.05 -3.785 0.116 -4.995Z" stroke-width="3"></path><path id="Rectangle 126" fill="#dfeb2a" d="M3.116 31.005c0.107 -1.955 1.426 -3.481 3.369 -3.716C7.81 27.129 9.617 27 12 27c2.383 0 4.19 0.129 5.515 0.289 1.943 0.235 3.262 1.761 3.369 3.716 0.066 1.21 0.116 2.839 0.116 4.995s-0.05 3.785 -0.116 4.995c-0.107 1.955 -1.426 3.481 -3.369 3.716 -1.325 0.16 -3.132 0.289 -5.515 0.289 -2.383 0 -4.19 -0.129 -5.515 -0.289 -1.943 -0.235 -3.262 -1.761 -3.369 -3.716A92.661 92.661 0 0 1 3 36c0 -2.156 0.05 -3.785 0.116 -4.995Z" stroke-width="3"></path><path id="Rectangle 124" fill="#dfeb2a" d="M27.116 7.005c0.107 -1.955 1.426 -3.481 3.369 -3.716C31.81 3.129 33.617 3 36 3c2.383 0 4.19 0.129 5.515 0.289 1.943 0.235 3.262 1.761 3.369 3.716C44.95 8.215 45 9.844 45 12s-0.05 3.785 -0.116 4.995c-0.107 1.955 -1.426 3.481 -3.369 3.716 -1.325 0.16 -3.132 0.289 -5.515 0.289 -2.383 0 -4.19 -0.129 -5.515 -0.289 -1.943 -0.235 -3.262 -1.761 -3.369 -3.716A92.711 92.711 0 0 1 27 12c0 -2.156 0.05 -3.785 0.116 -4.995Z" stroke-width="3"></path><path id="Rectangle 125" fill="#dfeb2a" d="M27.116 31.005c0.107 -1.955 1.426 -3.481 3.369 -3.716C31.81 27.129 33.617 27 36 27c2.383 0 4.19 0.129 5.515 0.289 1.943 0.235 3.262 1.761 3.369 3.716 0.066 1.21 0.116 2.839 0.116 4.995s-0.05 3.785 -0.116 4.995c-0.107 1.955 -1.426 3.481 -3.369 3.716 -1.325 0.16 -3.132 0.289 -5.515 0.289 -2.383 0 -4.19 -0.129 -5.515 -0.289 -1.943 -0.235 -3.262 -1.761 -3.369 -3.716A92.711 92.711 0 0 1 27 36c0 -2.156 0.05 -3.785 0.116 -4.995Z" stroke-width="3"></path><path id="Rectangle 127" stroke="#00484d" stroke-linecap="round" stroke-linejoin="round" d="M3.116 7.005c0.107 -1.955 1.426 -3.481 3.369 -3.716C7.81 3.129 9.617 3 12 3c2.383 0 4.19 0.129 5.515 0.289 1.943 0.235 3.262 1.761 3.369 3.716C20.95 8.215 21 9.844 21 12s-0.05 3.785 -0.116 4.995c-0.107 1.955 -1.426 3.481 -3.369 3.716 -1.325 0.16 -3.132 0.289 -5.515 0.289 -2.383 0 -4.19 -0.129 -5.515 -0.289 -1.943 -0.235 -3.262 -1.761 -3.369 -3.716A92.661 92.661 0 0 1 3 12c0 -2.156 0.05 -3.785 0.116 -4.995Z" stroke-width="3"></path><path id="Rectangle 128" stroke="#00484d" stroke-linecap="round" stroke-linejoin="round" d="M3.116 31.005c0.107 -1.955 1.426 -3.481 3.369 -3.716C7.81 27.129 9.617 27 12 27c2.383 0 4.19 0.129 5.515 0.289 1.943 0.235 3.262 1.761 3.369 3.716 0.066 1.21 0.116 2.839 0.116 4.995s-0.05 3.785 -0.116 4.995c-0.107 1.955 -1.426 3.481 -3.369 3.716 -1.325 0.16 -3.132 0.289 -5.515 0.289 -2.383 0 -4.19 -0.129 -5.515 -0.289 -1.943 -0.235 -3.262 -1.761 -3.369 -3.716A92.661 92.661 0 0 1 3 36c0 -2.156 0.05 -3.785 0.116 -4.995Z" stroke-width="3"></path><path id="Rectangle 129" stroke="#00484d" stroke-linecap="round" stroke-linejoin="round" d="M27.116 7.005c0.107 -1.955 1.426 -3.481 3.369 -3.716C31.81 3.129 33.617 3 36 3c2.383 0 4.19 0.129 5.515 0.289 1.943 0.235 3.262 1.761 3.369 3.716C44.95 8.215 45 9.844 45 12s-0.05 3.785 -0.116 4.995c-0.107 1.955 -1.426 3.481 -3.369 3.716 -1.325 0.16 -3.132 0.289 -5.515 0.289 -2.383 0 -4.19 -0.129 -5.515 -0.289 -1.943 -0.235 -3.262 -1.761 -3.369 -3.716A92.711 92.711 0 0 1 27 12c0 -2.156 0.05 -3.785 0.116 -4.995Z" stroke-width="3"></path><path id="Rectangle 130" stroke="#00484d" stroke-linecap="round" stroke-linejoin="round" d="M27.116 31.005c0.107 -1.955 1.426 -3.481 3.369 -3.716C31.81 27.129 33.617 27 36 27c2.383 0 4.19 0.129 5.515 0.289 1.943 0.235 3.262 1.761 3.369 3.716 0.066 1.21 0.116 2.839 0.116 4.995s-0.05 3.785 -0.116 4.995c-0.107 1.955 -1.426 3.481 -3.369 3.716 -1.325 0.16 -3.132 0.289 -5.515 0.289 -2.383 0 -4.19 -0.129 -5.515 -0.289 -1.943 -0.235 -3.262 -1.761 -3.369 -3.716A92.711 92.711 0 0 1 27 36c0 -2.156 0.05 -3.785 0.116 -4.995Z" stroke-width="3"></path></g></svg>