<svg xmlns="http://www.w3.org/2000/svg" fill="none" viewBox="0 0 48 48" id="Wrench-Circle--Streamline-Sharp.svg" height="48" width="48"><desc>Wrench Circle Streamline Icon: https://streamlinehq.com</desc><g id="Flat/01-Interface-Essential/16-Setting/wrench-circle--crescent-tool-construction-tools-wrench-setting-edit-adjust"><path id="Union" fill="#b8ff80" fill-rule="evenodd" d="M24 0C17.6348 0 11.53032 2.52856 7.02944 7.02944 2.52856 11.53032 0 17.6348 0 24s2.52856 12.4696 7.02944 16.9706C11.53032 45.4714 17.6348 48 24 48s12.4696 -2.5286 16.9706 -7.0294C45.4714 36.4696 48 30.3652 48 24c0 -6.3652 -2.5286 -12.46968 -7.0294 -16.97056C36.4696 2.52856 30.3652 0 24 0Z" clip-rule="evenodd" stroke-width="1"></path><path id="Intersect" fill="#108a00" fill-rule="evenodd" d="M29 47.4734v-12.5644c1.2844 -0.5886 2.467 -1.405 3.4852 -2.4234C34.7358 30.2352 36 27.183 36 24.0004c0 -3.1826 -1.2642 -6.23494 -3.5148 -8.48538 -1.2776 -1.27766 -2.8138 -2.23746 -4.4854 -2.8285v8.31388l-4 4 -4.00358 -4 0.0027 -8.31342c-1.6712 0.59106 -3.20686 1.5507 -4.4842 2.82804C13.26428 17.76546 12 20.8178 12 24.0004c0 3.1826 1.26428 6.2348 3.51472 8.4852 1.01832 1.0184 2.20082 1.8348 3.48528 2.4234v12.5644c1.6314 0.3476 3.3064 0.5266 5 0.5266s3.3686 -0.179 5 -0.5266Z" clip-rule="evenodd" stroke-width="1"></path></g></svg>